<svg xmlns="http://www.w3.org/2000/svg">
  <symbol id="telegram" viewBox="0 0 24 24">
    <path fill="currentColor" d="M21.2 3.7 2.9 10.8c-1.1.4-1 1.6 0 1.9l4.6 1.4 1.8 5.6c.3.8 1.2 1 1.8.4l2.6-2.4 4.6 3.4c.7.5 1.6.1 1.8-.7L22.6 5.1c.2-1-.6-1.8-1.4-1.4ZM9.7 14.3l7.9-7-6.4 8.1-.3 3-1.2-4.1Z" />
  </symbol>
  <symbol id="vk" viewBox="0 0 24 24">
    <path fill="currentColor" d="M12.8 17.5C6.6 17.5 3.1 13.3 3 6.5h3.1c.1 5 2.3 7.1 4 7.5V6.5H13v4.3c1.7-.2 3.5-2.1 4.1-4.3H20c-.5 2.6-2.4 4.6-3.8 5.4 1.4.7 3.6 2.4 4.4 5.6h-3.2c-.7-2.1-2.4-3.8-4.4-4v4h-.2Z" />
  </symbol>
  <symbol id="google" viewBox="0 0 24 24">
    <path fill="none" stroke="currentColor" stroke-width="2.4" stroke-linecap="round" d="M20 12.2h-7.5M19.4 8.5A8 8 0 1 0 20 12.2" />
  </symbol>
  <symbol id="ok" viewBox="0 0 24 24">
    <g fill="none" stroke="currentColor" stroke-width="2.2" stroke-linecap="round" stroke-linejoin="round">
      <circle cx="12" cy="7.5" r="3.5" />
      <path d="M7.5 13c2.8 1.8 6.2 1.8 9 0M8.5 20.5l3.5-4.5 3.5 4.5" />
    </g>
  </symbol>
  <symbol id="steam" viewBox="0 0 24 24">
    <g fill="none" stroke="currentColor" stroke-width="2" stroke-linecap="round">
      <circle cx="15" cy="9" r="3.5" />
      <circle cx="8.5" cy="15.5" r="2.5" />
      <path d="m12.2 11.2-2.1 2.5M2.5 13l3.8 1.6" />
    </g>
  </symbol>
  <symbol id="mail" viewBox="0 0 24 24">
    <g fill="none" stroke="currentColor" stroke-width="2" stroke-linejoin="round">
      <rect x="3" y="5" width="18" height="14" rx="2" />
      <path d="m3.5 6.5 8.5 7 8.5-7" />
    </g>
  </symbol>
  <symbol id="copy" viewBox="0 0 24 24">
    <g fill="none" stroke="currentColor" stroke-width="2" stroke-linejoin="round">
      <rect x="8" y="8" width="12" height="12" rx="2" />
      <path d="M16 8V6a2 2 0 0 0-2-2H6a2 2 0 0 0-2 2v8a2 2 0 0 0 2 2h2" />
    </g>
  </symbol>
  <symbol id="chevron" viewBox="0 0 24 24">
    <path fill="none" stroke="currentColor" stroke-width="2.2" stroke-linecap="round" stroke-linejoin="round" d="m6 9 6 6 6-6" />
  </symbol>
  <symbol id="gift" viewBox="0 0 24 24">
    <g fill="none" stroke="currentColor" stroke-width="2" stroke-linejoin="round">
      <rect x="3.5" y="8" width="17" height="4" rx="1" />
      <path d="M5 12v8h14v-8M12 8v12M12 8c-1.5-3.5-5.5-4-5.5-1.5S10 8 12 8Zm0 0c1.5-3.5 5.5-4 5.5-1.5S14 8 12 8Z" />
    </g>
  </symbol>
  <symbol id="star" viewBox="0 0 24 24">
    <path fill="currentColor" d="m12 2.8 2.8 5.8 6.3.9-4.6 4.4 1.1 6.3L12 17.2l-5.6 3 1.1-6.3-4.6-4.4 6.3-.9Z" />
  </symbol>
  <symbol id="seven" viewBox="0 0 24 24">
    <path fill="none" stroke="currentColor" stroke-width="2.6" stroke-linecap="round" stroke-linejoin="round" d="M6 5h12l-6.5 14M9 12h6" />
  </symbol>
  <symbol id="live" viewBox="0 0 24 24">
    <g fill="none" stroke="currentColor" stroke-width="2" stroke-linejoin="round">
      <rect x="2.5" y="6" width="13" height="12" rx="2" />
      <path d="m15.5 10.5 6-3.5v10l-6-3.5Z" />
    </g>
  </symbol>
  <symbol id="cards" viewBox="0 0 24 24">
    <g fill="none" stroke="currentColor" stroke-width="2" stroke-linejoin="round">
      <path d="m9.5 4.2 7.8-1.4a2 2 0 0 1 2.3 1.6l2.2 12.3a2 2 0 0 1-1.6 2.3l-2.7.5" />
      <rect x="2.5" y="5.5" width="12" height="16" rx="2" />
    </g>
    <path fill="currentColor" d="M8.5 11.2c-.9-1.4-3-1-3 .6 0 1.7 3 3.7 3 3.7s3-2 3-3.7c0-1.6-2.1-2-3-.6Z" />
  </symbol>
  <symbol id="ball" viewBox="0 0 24 24">
    <g fill="none" stroke="currentColor" stroke-width="2" stroke-linejoin="round">
      <circle cx="12" cy="12" r="9" />
      <path fill="currentColor" d="m12 7.8 3.8 2.8-1.5 4.4H9.7l-1.5-4.4Z" />
      <path d="M12 3v4.8M15.8 10.6l4.4-1.6M14.3 15l2.7 3.8M9.7 15 7 18.8M8.2 10.6 3.8 9" />
    </g>
  </symbol>
  <symbol id="gamepad" viewBox="0 0 24 24">
    <g fill="none" stroke="currentColor" stroke-width="2" stroke-linecap="round" stroke-linejoin="round">
      <path d="M7 7h10a5 5 0 0 1 4.9 6l-.7 3.5a2.5 2.5 0 0 1-4.3 1.2L14.5 15h-5l-2.4 2.7a2.5 2.5 0 0 1-4.3-1.2L2.1 13A5 5 0 0 1 7 7Z" />
      <path d="M7 10v3M5.5 11.5h3M15.5 11h.01M18 12.5h.01" />
    </g>
  </symbol>
  <symbol id="trophy" viewBox="0 0 24 24">
    <g fill="none" stroke="currentColor" stroke-width="2" stroke-linecap="round" stroke-linejoin="round">
      <path d="M7 4h10v5a5 5 0 0 1-10 0Z" />
      <path d="M7 6H4a3 3 0 0 0 3 4M17 6h3a3 3 0 0 1-3 4M12 14v4M8 20h8" />
    </g>
  </symbol>
  <symbol id="tv" viewBox="0 0 24 24">
    <g fill="none" stroke="currentColor" stroke-width="2" stroke-linecap="round" stroke-linejoin="round">
      <rect x="3" y="5" width="18" height="13" rx="2" />
      <path fill="currentColor" d="M10 9v5l4-2.5Z" />
      <path d="M8 21h8" />
    </g>
  </symbol>
  <symbol id="rocket" viewBox="0 0 24 24">
    <g fill="none" stroke="currentColor" stroke-width="2" stroke-linecap="round" stroke-linejoin="round">
      <path d="M12 2.5c3 2 4.5 5 4.5 9v4h-9v-4c0-4 1.5-7 4.5-9Z" />
      <path d="M7.5 12 5 15v3h2.5M16.5 12l2.5 3v3h-2.5M10 19.5h4" />
      <circle cx="12" cy="9" r="1.5" />
    </g>
  </symbol>
  <symbol id="crown" viewBox="0 0 24 24">
    <path fill="none" stroke="currentColor" stroke-width="2" stroke-linejoin="round" d="m3 8 4.5 4L12 5l4.5 7L21 8l-2 10H5Z" />
  </symbol>
  <symbol id="level" viewBox="0 0 24 24">
    <path fill="none" stroke="currentColor" stroke-width="2" stroke-linecap="round" stroke-linejoin="round" d="m5 12 7-7 7 7M5 19l7-7 7 7" />
  </symbol>
  <symbol id="cashback" viewBox="0 0 24 24">
    <path fill="none" stroke="currentColor" stroke-width="2" stroke-linecap="round" stroke-linejoin="round" d="M20 12a8 8 0 1 1-2.3-5.7M20 4v4h-4" />
  </symbol>
  <symbol id="support" viewBox="0 0 24 24">
    <g fill="none" stroke="currentColor" stroke-width="2" stroke-linecap="round" stroke-linejoin="round">
      <path d="M4 14v-2a8 8 0 0 1 16 0v2" />
      <rect x="3" y="13" width="4" height="6" rx="1.5" />
      <rect x="17" y="13" width="4" height="6" rx="1.5" />
      <path d="M19 19c0 1.5-1.5 2.5-4 2.5h-2" />
    </g>
  </symbol>
  <symbol id="login" viewBox="0 0 24 24">
    <path fill="none" stroke="currentColor" stroke-width="2" stroke-linecap="round" stroke-linejoin="round" d="M14 4h4a2 2 0 0 1 2 2v12a2 2 0 0 1-2 2h-4M10 16l4-4-4-4M14 12H4" />
  </symbol>
  <symbol id="user-plus" viewBox="0 0 24 24">
    <g fill="none" stroke="currentColor" stroke-width="2" stroke-linecap="round" stroke-linejoin="round">
      <circle cx="9" cy="8" r="4" />
      <path d="M2 20c0-3.5 3-6 7-6s7 2.5 7 6M19 8v6M16 11h6" />
    </g>
  </symbol>
  <symbol id="home" viewBox="0 0 24 24">
    <path fill="currentColor" d="M3 10.6 12 3l9 7.6V20a1 1 0 0 1-1 1h-5v-6H9v6H4a1 1 0 0 1-1-1Z" />
  </symbol>
  <symbol id="play" viewBox="0 0 24 24">
    <circle cx="12" cy="12" r="8.5" fill="none" stroke="currentColor" stroke-width="2" />
    <path fill="currentColor" d="M10 8.5v7l5.5-3.5Z" />
  </symbol>
  <symbol id="chat" viewBox="0 0 24 24">
    <path fill="none" stroke="currentColor" stroke-width="2" stroke-linejoin="round" d="M4 5h16v11H9.5L4 20Z" />
  </symbol>
  <symbol id="link" viewBox="0 0 24 24">
    <path fill="none" stroke="currentColor" stroke-width="2.2" stroke-linecap="round" d="M10 14a4 4 0 0 0 5.7 0l3-3a4 4 0 0 0-5.7-5.7l-1 1M14 10a4 4 0 0 0-5.7 0l-3 3a4 4 0 0 0 5.7 5.7l1-1" />
  </symbol>
  <symbol id="pulse" viewBox="0 0 24 24">
    <path fill="none" stroke="currentColor" stroke-width="2.2" stroke-linecap="round" stroke-linejoin="round" d="M3 16l5-6 4 4 4-6 5 5" />
  </symbol>
  <symbol id="x" viewBox="0 0 24 24">
    <path fill="currentColor" d="M17.8 3h3.1l-6.8 7.8L22 21h-6.2l-4.9-6.4L5.3 21H2.2l7.3-8.3L2 3h6.4l4.4 5.8Zm-1.1 16.2h1.7L7.4 4.7H5.6Z" />
  </symbol>
  <symbol id="viber" viewBox="0 0 24 24">
    <path fill="none" stroke="currentColor" stroke-width="2" stroke-linejoin="round" d="M12 3c-5 0-8 1.5-8 7 0 3.5 1 5.5 3.5 6.5V21l3-3.5h1.5c5 0 8-1.6 8-7.5S17 3 12 3Z" />
    <path fill="currentColor" d="M9.2 7.4c.3-.3.7-.3.9 0l.8 1.4c.1.3 0 .5-.2.7l-.4.4c.5 1.1 1.4 2 2.5 2.5l.4-.4c.2-.2.5-.3.7-.2l1.4.8c.3.2.3.6 0 .9-.8.8-2 1-3 .4a8 8 0 0 1-3.5-3.5c-.6-1-.4-2.2.4-3Z" />
  </symbol>
  <symbol id="whatsapp" viewBox="0 0 24 24">
    <path fill="none" stroke="currentColor" stroke-width="2" stroke-linejoin="round" d="M3.5 20.5 5 16a8.5 8.5 0 1 1 3 3Z" />
    <path fill="currentColor" d="M9 8.2c.3-.4.8-.4 1 0l.8 1.6c.1.3 0 .6-.2.8l-.5.5c.6 1.2 1.6 2.2 2.8 2.8l.5-.5c.2-.2.5-.3.8-.2l1.6.8c.4.2.4.7 0 1-.9.9-2.3 1.1-3.4.5a9 9 0 0 1-3.9-3.9c-.6-1.1-.4-2.5.5-3.4Z" />
  </symbol>
  <symbol id="pay-card" viewBox="0 0 24 24">
    <rect x="2" y="2" width="20" height="20" rx="5" fill="#1d4ed8" />
    <path fill="#fff" d="M6 7.5h12v3H6Zm0 6h12v3H6Z" />
  </symbol>
  <symbol id="pay-play" viewBox="0 0 24 24">
    <rect x="2" y="2" width="20" height="20" rx="5" fill="#f1f3f6" />
    <path fill="#00c2ff" d="M7 5.5v13l6.5-6.5Z" />
    <path fill="#00e676" d="M7 5.5l6.5 6.5 2.6-2.6Z" />
    <path fill="#ff3d57" d="M7 18.5l6.5-6.5 2.6 2.6Z" />
    <path fill="#ffc400" d="M16.1 9.4 13.5 12l2.6 2.6 2.9-1.6c.8-.5.8-1.5 0-2Z" />
  </symbol>
  <symbol id="pay-mcvisa" viewBox="0 0 24 24">
    <circle cx="9.5" cy="9" r="5.5" fill="#eb001b" />
    <circle cx="14.5" cy="9" r="5.5" fill="#f79e1b" fill-opacity=".9" />
    <text x="12" y="21.5" fill="#1a6bd9" font-family="Arial, sans-serif" font-size="7" font-style="italic" font-weight="900" text-anchor="middle">VISA</text>
  </symbol>
  <symbol id="pay-yoomoney" viewBox="0 0 24 24">
    <path fill="#8b3ffd" d="M14.5 5a7 7 0 1 1 0 14 7 7 0 0 1 0-14Zm0 4a3 3 0 1 0 0 6 3 3 0 0 0 0-6ZM2 7.5 7.5 5v14L2 16.5Z" />
  </symbol>
  <symbol id="pay-p" viewBox="0 0 24 24">
    <circle cx="12" cy="12" r="10" fill="#1aa0e8" />
    <path fill="#fff" d="M9 6.5h4.2a3.8 3.8 0 0 1 0 7.6H11.5V18H9Zm2.5 2.2v3.2h1.6a1.6 1.6 0 0 0 0-3.2Z" />
  </symbol>
  <symbol id="pay-tether" viewBox="0 0 24 24">
    <path fill="#26a17b" d="M5 4.5h14v3.2h-5.3v12.3h-3.4V7.7H5Z" />
    <ellipse cx="12" cy="11" rx="6.5" ry="2" fill="none" stroke="#26a17b" stroke-width="1.4" />
  </symbol>
  <symbol id="pay-mts" viewBox="0 0 24 24">
    <rect x="2" y="2" width="20" height="20" fill="#e30611" />
    <path fill="#fff" d="M12 5c2.8 0 4.5 3.8 4.5 7.2S14.6 19 12 19s-4.5-3.4-4.5-6.8S9.2 5 12 5Z" />
  </symbol>
  <symbol id="pay-qiwi" viewBox="0 0 24 24">
    <circle cx="12" cy="12" r="10" fill="#1e9e5a" />
    <circle cx="12" cy="12" r="5" fill="none" stroke="#ff8c00" stroke-width="2" />
    <path fill="none" stroke="#ff8c00" stroke-width="2" stroke-linecap="round" d="m15 15 3 3" />
  </symbol>
  <symbol id="pay-beeline" viewBox="0 0 24 24">
    <circle cx="12" cy="12" r="10" fill="#ffc800" />
    <path fill="#1b1b1b" d="M3 8.2h18v2H3Zm-.5 5.6h19v2h-19ZM5 18.6h14a10 10 0 0 1-14 0ZM5 5.4a10 10 0 0 1 14 0Z" />
  </symbol>
  <symbol id="bitcoin" viewBox="0 0 24 24">
    <circle cx="12" cy="12" r="10" fill="#f7931a" />
    <path fill="none" stroke="#fff" stroke-width="1.8" stroke-linejoin="round" d="M9 7h4.2a2.3 2.3 0 0 1 0 4.6H9Zm0 4.6h4.8a2.4 2.4 0 0 1 0 4.8H9ZM10.5 5.5V7M13 5.5V7M10.5 16.4V18M13 16.4V18" />
  </symbol>
</svg>
